<svg width="512.008" height="512.008" xmlns="http://www.w3.org/2000/svg">

 <g>
  <title>background</title>
  <rect fill="none" id="canvas_background" height="402" width="582" y="-1" x="-1"/>
 </g>
 <g>
  <title>Layer 1</title>
  <path transform="rotate(-180 256.0044860839844,256.0039978027344) " id="svg_1" fill="#f52457" d="m306.219,45.796c-21.838,-21.838 -57.245,-21.838 -79.083,0s-21.838,57.245 0,79.083l77.781,77.803l-251.584,0c-29.455,0 -53.333,23.878 -53.333,53.333c0,29.455 23.878,53.333 53.333,53.333l251.584,0l-77.781,77.781c-21.838,21.838 -21.838,57.245 0,79.083c21.838,21.838 57.245,21.838 79.083,0l202.667,-202.667c4.164,-4.165 4.164,-10.917 0,-15.083l-202.667,-202.666z"/>
  <g id="svg_2"/>
  <g id="svg_3"/>
  <g id="svg_4"/>
  <g id="svg_5"/>
  <g id="svg_6"/>
  <g id="svg_7"/>
  <g id="svg_8"/>
  <g id="svg_9"/>
  <g id="svg_10"/>
  <g id="svg_11"/>
  <g id="svg_12"/>
  <g id="svg_13"/>
  <g id="svg_14"/>
  <g id="svg_15"/>
  <g id="svg_16"/>
 </g>
</svg>