<svg width="512" height="512" xmlns="http://www.w3.org/2000/svg">

 <g>
  <title>background</title>
  <rect fill="none" id="canvas_background" height="402" width="582" y="-1" x="-1"/>
 </g>
 <g>
  <title>Layer 1</title>
  <g id="svg_1">
   <path fill="#7c6645" id="svg_2" d="m226,446l60,0c5.522,0 10,-4.477 10,-10l0,-50l50,0c5.522,0 10,-4.477 10,-10l0,-60c0,-5.523 -4.478,-10 -10,-10l-50,0l0,-50c0,-5.523 -4.478,-10 -10,-10l-60,0c-5.523,0 -10,4.477 -10,10l0,50l-50,0c-5.523,0 -10,4.477 -10,10l0,60c0,5.523 4.477,10 10,10l50,0l0,50c0,5.523 4.477,10 10,10zm-50,-80l0,-40l50,0c5.523,0 10,-4.477 10,-10l0,-50l40,0l0,50c0,5.523 4.478,10 10,10l50,0l0,40l-50,0c-5.522,0 -10,4.477 -10,10l0,50l-40,0l0,-50c0,-5.523 -4.477,-10 -10,-10l-50,0z"/>
   <circle fill="#7c6645" id="svg_3" r="10" cy="502" cx="256"/>
   <path fill="#7c6645" id="svg_4" d="m40,512l171,0c5.523,0 10,-4.477 10,-10s-4.477,-10 -10,-10l-171,0c-11.028,0 -20,-8.972 -20,-20l0,-266l40,0l0,50c0,5.523 4.477,10 10,10l60,0c5.523,0 10,-4.477 10,-10l0,-50l232,0l0,50c0,5.523 4.478,10 10,10l60,0c5.522,0 10,-4.477 10,-10l0,-50l40,0l0,266c0,11.028 -8.972,20 -20,20l-171,0c-5.522,0 -10,4.477 -10,10s4.478,10 10,10l171,0c22.056,0 40,-17.944 40,-40l0,-336c0,-22.056 -17.944,-40 -40,-40l-86,0l0,-56c0,-22.056 -17.944,-40 -40,-40l-180,0c-22.056,0 -40,17.944 -40,40l0,56l-86,0c-22.056,0 -40,17.944 -40,40l0,336c0,22.056 17.944,40 40,40zm80,-266l-40,0l0,-40l40,0l0,40zm312,0l-40,0l0,-40l40,0l0,40zm-286,-206c0,-11.028 8.972,-20 20,-20l180,0c11.028,0 20,8.972 20,20l0,56l-220,0l0,-56zm-106,76l432,0c11.028,0 20,8.972 20,20l0,50l-472,0l0,-50c0,-11.028 8.972,-20 20,-20z"/>
  </g>
 </g>
</svg>