<svg width="512" height="512" xmlns="http://www.w3.org/2000/svg">

 <g>
  <title>background</title>
  <rect fill="none" id="canvas_background" height="402" width="582" y="-1" x="-1"/>
 </g>
 <g>
  <title>Layer 1</title>
  <g id="svg_1">
   <g id="svg_2">
    <path fill="#ffffff" id="svg_3" d="m310,190c-5.52,0 -10,4.48 -10,10s4.48,10 10,10c5.52,0 10,-4.48 10,-10s-4.48,-10 -10,-10z"/>
   </g>
  </g>
  <g id="svg_4">
   <g id="svg_5">
    <path fill="#ffffff" id="svg_6" d="m500.281,443.719l-133.48,-133.48c21.745,-32.754 33.199,-70.684 33.199,-110.239c0,-110.28 -89.72,-200 -200,-200s-200,89.72 -200,200s89.72,200 200,200c39.556,0 77.486,-11.455 110.239,-33.198l36.895,36.895c0.005,0.005 0.01,0.01 0.016,0.016l96.568,96.568c7.558,7.557 17.601,11.719 28.282,11.719c10.681,0 20.724,-4.162 28.278,-11.716c7.559,-7.553 11.722,-17.597 11.722,-28.284s-4.163,-20.731 -11.719,-28.281zm-194.745,-97.992c0,0.001 -0.001,0.001 -0.002,0.002c-30.867,22.42 -67.359,34.271 -105.534,34.271c-99.252,0 -180,-80.748 -180,-180s80.748,-180 180,-180s180,80.748 180,180c0,38.175 -11.851,74.667 -34.272,105.535c-11.217,15.453 -24.739,28.976 -40.192,40.192zm20.98,9.066c10.35,-8.467 19.811,-17.928 28.277,-28.277l28.371,28.371c-8.628,10.183 -18.094,19.65 -28.277,28.277l-28.371,-28.371zm159.623,131.346c-3.78,3.78 -8.801,5.861 -14.139,5.861s-10.359,-2.081 -14.139,-5.861l-88.795,-88.795c10.127,-8.691 19.587,-18.15 28.277,-28.277l88.798,88.798c3.778,3.774 5.859,8.793 5.859,14.135c0,5.342 -2.081,10.361 -5.861,14.139z"/>
   </g>
  </g>
  <g id="svg_7">
   <g id="svg_8">
    <path fill="#ffffff" id="svg_9" d="m200,40c-88.225,0 -160,71.775 -160,160s71.775,160 160,160s160,-71.775 160,-160s-71.775,-160 -160,-160zm0,300c-77.196,0 -140,-62.804 -140,-140s62.804,-140 140,-140s140,62.804 140,140s-62.804,140 -140,140z"/>
   </g>
  </g>
  <g id="svg_10">
   <g id="svg_11">
    <path fill="#ffffff" id="svg_12" d="m312.065,157.073c-8.611,-22.412 -23.604,-41.574 -43.36,-55.413c-20.226,-14.17 -43.984,-21.66 -68.705,-21.66c-5.522,0 -10,4.478 -10,10c0,5.522 4.478,10 10,10c41.099,0 78.631,25.818 93.396,64.247c1.528,3.976 5.317,6.416 9.337,6.416c1.192,0 2.405,-0.215 3.584,-0.668c5.155,-1.981 7.729,-7.766 5.748,-12.922z"/>
   </g>
  </g>
  <g id="svg_13"/>
  <g id="svg_14"/>
  <g id="svg_15"/>
  <g id="svg_16"/>
  <g id="svg_17"/>
  <g id="svg_18"/>
  <g id="svg_19"/>
  <g id="svg_20"/>
  <g id="svg_21"/>
  <g id="svg_22"/>
  <g id="svg_23"/>
  <g id="svg_24"/>
  <g id="svg_25"/>
  <g id="svg_26"/>
  <g id="svg_27"/>
 </g>
</svg>