<svg width="198" height="80" viewBox="0 0 198 80" fill="none" xmlns="http://www.w3.org/2000/svg">
<g filter="url(#filter0_d)">
<path d="M15 19C15 15.134 18.134 12 22 12H54C57.866 12 61 15.134 61 19V51C61 54.866 57.866 58 54 58H37.2329C35.8167 58 34.4724 58.6235 33.5577 59.7045L33.1436 60.194C31.3061 62.3655 27.9084 62.201 26.2893 59.8623C25.4818 58.696 24.1535 58 22.735 58H21.5619C17.9379 58 15 55.0621 15 51.4381V19Z" fill="black"/>
</g>
<g clip-path="url(#clip0)">
<path d="M42.311 35.5902C41.4535 33.5819 39.6561 32.1668 37.5027 31.8049C35.3494 31.4431 33.1881 32.1931 31.7215 33.8109L28.187 37.709C27.6005 38.3557 27.2454 39.1571 27.16 40.0259C27.0746 40.895 27.2671 41.7499 27.7164 42.4989C28.1663 43.2474 28.8308 43.819 29.6382 44.152C30.4456 44.485 31.32 44.5476 32.1669 44.3335L32.2236 44.319C34.3515 43.7976 36.6176 44.1865 38.4505 45.3894C38.9233 45.6996 39.4452 45.904 39.991 45.9957C40.2877 46.0456 40.5919 46.0621 40.899 46.0444C41.7709 45.9937 42.5857 45.6707 43.2557 45.1102C43.9253 44.5499 44.3869 43.8046 44.5904 42.9552C44.7939 42.1058 44.7202 41.2326 44.3774 40.4294L42.311 35.5902Z" fill="#F4CB38"/>
<path d="M29.6763 33.4615C30.5632 33.2815 31.3089 32.7165 31.7761 31.8704C32.2207 31.0654 32.3584 30.0954 32.1636 29.1387C31.9684 28.1826 31.4622 27.3439 30.7382 26.7766C29.9776 26.181 29.0704 25.9524 28.1848 26.1332C26.4034 26.4954 25.288 28.4342 25.6985 30.4561C26.0274 32.0658 27.2265 33.2486 28.6009 33.4795C28.9518 33.5385 29.3142 33.5354 29.6763 33.4615Z" fill="#F4CB38"/>
<path d="M35.6852 30.9518C37.7771 31.3033 39.8048 29.6503 40.2052 27.2671C40.6058 24.8832 39.2298 22.6579 37.1379 22.3064C35.0463 21.9549 33.0187 23.6083 32.6181 25.9922C32.2177 28.3755 33.5935 30.6003 35.6852 30.9518Z" fill="#F4CB38"/>
<path d="M42.0586 33.1146L42.0588 33.1146C42.3626 33.2755 42.6824 33.3817 43.0093 33.4366C44.5348 33.6929 46.2081 32.8324 47.0621 31.2213C47.5539 30.2939 47.7069 29.2517 47.493 28.2867C47.2693 27.2766 46.6755 26.4709 45.8208 26.0179C44.9659 25.5649 43.9657 25.5259 43.0042 25.9077C42.0856 26.2725 41.3092 26.9842 40.8178 27.9117C39.7809 29.8681 40.3376 32.2021 42.0586 33.1146Z" fill="#F4CB38"/>
<path d="M50.1327 33.9523L50.1322 33.9516C48.8686 32.6436 46.6336 32.743 45.1493 34.1736C43.6662 35.6052 43.4858 37.8347 44.7471 39.1431C45.207 39.6206 45.7964 39.9109 46.4317 40.0176C47.5389 40.2037 48.7858 39.8321 49.7305 38.9223C51.2135 37.4906 51.394 35.2612 50.1327 33.9523Z" fill="#F4CB38"/>
</g>
<path d="M91.446 28.4V41H87.198V36.356H83.274V41H79.026V28.4H83.274V32.864H87.198V28.4H91.446ZM103.249 38.804H98.4608L97.6148 41H93.2948L98.8028 28.4H102.979L108.487 41H104.095L103.249 38.804ZM102.079 35.744L100.855 32.576L99.6308 35.744H102.079ZM116.401 28.4C117.565 28.4 118.579 28.592 119.443 28.976C120.307 29.36 120.973 29.912 121.441 30.632C121.909 31.352 122.143 32.192 122.143 33.152C122.143 34.112 121.909 34.952 121.441 35.672C120.973 36.392 120.307 36.944 119.443 37.328C118.579 37.712 117.565 37.904 116.401 37.904H114.583V41H110.335V28.4H116.401ZM116.131 34.628C116.707 34.628 117.139 34.502 117.427 34.25C117.715 33.986 117.859 33.62 117.859 33.152C117.859 32.684 117.715 32.324 117.427 32.072C117.139 31.808 116.707 31.676 116.131 31.676H114.583V34.628H116.131ZM130.772 28.4C131.936 28.4 132.95 28.592 133.814 28.976C134.678 29.36 135.344 29.912 135.812 30.632C136.28 31.352 136.514 32.192 136.514 33.152C136.514 34.112 136.28 34.952 135.812 35.672C135.344 36.392 134.678 36.944 133.814 37.328C132.95 37.712 131.936 37.904 130.772 37.904H128.954V41H124.706V28.4H130.772ZM130.502 34.628C131.078 34.628 131.51 34.502 131.798 34.25C132.086 33.986 132.23 33.62 132.23 33.152C132.23 32.684 132.086 32.324 131.798 32.072C131.51 31.808 131.078 31.676 130.502 31.676H128.954V34.628H130.502ZM146.565 36.428V41H142.317V36.374L137.565 28.4H142.047L144.621 32.756L147.213 28.4H151.317L146.565 36.428ZM165.659 28.4C166.823 28.4 167.837 28.592 168.701 28.976C169.565 29.36 170.231 29.912 170.699 30.632C171.167 31.352 171.401 32.192 171.401 33.152C171.401 34.112 171.167 34.952 170.699 35.672C170.231 36.392 169.565 36.944 168.701 37.328C167.837 37.712 166.823 37.904 165.659 37.904H163.841V41H159.593V28.4H165.659ZM165.389 34.628C165.965 34.628 166.397 34.502 166.685 34.25C166.973 33.986 167.117 33.62 167.117 33.152C167.117 32.684 166.973 32.324 166.685 32.072C166.397 31.808 165.965 31.676 165.389 31.676H163.841V34.628H165.389ZM184.44 37.796V41H173.964V28.4H184.206V31.604H178.14V33.08H183.468V36.14H178.14V37.796H184.44ZM189.981 31.694H186.291V28.4H197.919V31.694H194.229V41H189.981V31.694Z" fill="white"/>
<defs>
<filter id="filter0_d" x="0" y="0" width="76" height="79.7246" filterUnits="userSpaceOnUse" color-interpolation-filters="sRGB">
<feFlood flood-opacity="0" result="BackgroundImageFix"/>
<feColorMatrix in="SourceAlpha" type="matrix" values="0 0 0 0 0 0 0 0 0 0 0 0 0 0 0 0 0 0 127 0"/>
<feOffset dy="3"/>
<feGaussianBlur stdDeviation="7.5"/>
<feColorMatrix type="matrix" values="0 0 0 0 1 0 0 0 0 1 0 0 0 0 1 0 0 0 0.33 0"/>
<feBlend mode="normal" in2="BackgroundImageFix" result="effect1_dropShadow"/>
<feBlend mode="normal" in="SourceGraphic" in2="effect1_dropShadow" result="shape"/>
</filter>
<clipPath id="clip0">
<rect width="26.1895" height="26.1895" fill="white" transform="translate(27.3399 19) rotate(9.53851)"/>
</clipPath>
</defs>
</svg>
